#!OML:ASF E:\Steps\Project 1\Capture day 1\Session 2\Subject.ASF
:FULLY-SPECIFIED
:DEGREES
622
root 12.4033 18.1062 17.3036 -152.393 4.44174 175.949
lowerback -25.1406 -1.87377 -4.75712
upperback 0.104388 -0.826179 0.215912
thorax 14.3803 -0.615886 2.71274
lowerneck 0.208944 -2.39459 0.0404777
upperneck 24.7459 -0.604152 -1.17023
head 7.55047 0.513486 -0.311397
rclavicle 1.40143e-014 -1.98785e-015
rhumerus -40.5199 -11.7593 -80.4799
rradius 40.7527
rwrist -8.61848
rhand -9.86413 -50.1384
rfingers 7.12502
rthumb 16.1145 -79.4885
lclavicle 1.40143e-014 -1.98785e-015
lhumerus -34.2398 3.92646 77.4571
lradius 28.903
lwrist -3.26733
lhand -21.9502 -13.7952
lfingers 7.12502
lthumb 4.45682 16.1379
rfemur -27.793 1.11967 20.4487
rtibia 8.57158
rfoot -22.3641 1.00566
rtoes -31.0534
lfemur -28.971 -10.6914 -22.1585
ltibia 12.2279
lfoot -8.54743 1.68804
ltoes -45.297
623
root 12.3986 18.1022 17.2889 -152.353 4.33311 176.056
lowerback -25.2958 -1.81466 -4.61431
upperback 0.0811106 -0.779475 0.232372
thorax 14.4334 -0.583837 2.66697
lowerneck -0.0280768 -2.43739 0.153978
upperneck 25.0405 -0.587467 -1.37115
head 7.68935 0.526346 -0.394707
rclavicle 8.94531e-015 6.95746e-015
rhumerus -40.5237 -11.7201 -80.5345
rradius 41.0718
rwrist -8.77039
rhand -9.83013 -51.0546
rfingers 7.12502
rthumb 16.1472 -80.4019
lclavicle 8.94531e-015 6.95746e-015
lhumerus -34.336 3.85464 77.4226
lradius 29.1214
lwrist -3.03895
lhand -21.9117 -13.3449
lfingers 7.12502
lthumb 4.49406 16.5874
rfemur -27.7266 1.16683 20.5659
rtibia 8.5464
rfoot -22.1465 1.00779
rtoes -31.259
lfemur -28.8975 -10.7453 -22.0723
ltibia 12.1583
lfoot -8.47195 1.64744
ltoes -44.6286
624
root 12.394 18.0977 17.2768 -152.234 4.19453 176.185
lowerback -25.5202 -1.7819 -4.46799
upperback 0.0245935 -0.773194 0.323717
thorax 14.4905 -0.571233 2.69128
lowerneck -0.0830789 -2.47078 -0.0764429
upperneck 25.2132 -0.608935 -1.24816
head 7.76015 0.51608 -0.314564
rclavicle -8.44835e-015 1.23246e-014
rhumerus -40.4076 -11.7869 -80.4363
rradius 41.0716
rwrist -8.64004
rhand -10.1333 -51.3375
rfingers 7.12502
rthumb 15.8553 -80.7083
lclavicle -8.44835e-015 1.23246e-014
lhumerus -34.4276 4.0149 77.4409
lradius 29.1967
lwrist -3.05979
lhand -22.086 -13.2547
lfingers 7.12502
lthumb 4.32576 16.6811
rfemur -27.7489 1.1174 20.7524
rtibia 8.518
rfoot -21.8575 1.02428
rtoes -31.8958
lfemur -28.94 -10.8238 -21.9211
ltibia 12.1068
lfoot -8.37362 1.63324
ltoes -44.1947
625
root 12.3901 18.0965 17.2695 -152.158 4.04741 176.249
lowerback -25.6696 -1.74076 -4.39652
upperback -0.0267032 -0.736531 0.398155
thorax 14.5101 -0.549478 2.7508
lowerneck -0.0125489 -2.52764 -0.307688
upperneck 25.2573 -0.678084 -1.11284
head 7.7653 0.481706 -0.233427
rclavicle 6.06293e-015 1.59028e-015
rhumerus -40.3237 -11.889 -80.3412
rradius 41.0792
rwrist -8.36327
rhand -10.467 -51.3982
rfingers 7.12502
rthumb 15.5339 -80.7942
lclavicle 6.06293e-015 1.59028e-015
lhumerus -34.3768 4.06864 77.5471
lradius 29.0805
lwrist -3.23129
lhand -22.3663 -13.269
lfingers 7.12502
lthumb 4.05506 16.6721
rfemur -27.7523 0.892638 20.8926
rtibia 8.4586
rfoot -21.7721 1.17518
rtoes -32.0594
lfemur -28.9914 -10.9448 -21.8087
ltibia 12.0956
lfoot -8.38615 1.62936
ltoes -43.7631
626
root 12.3857 18.0953 17.2617 -152.15 3.98439 176.258
lowerback -25.7687 -1.68836 -4.34764
upperback -0.0433173 -0.672937 0.397191
thorax 14.5397 -0.515939 2.74583
lowerneck 0.0010559 -2.55208 -0.268544
upperneck 25.2675 -0.68038 -1.22502
head 7.76541 0.478599 -0.276873
rclavicle -1.22253e-014 9.54166e-015
rhumerus -40.2513 -11.9109 -80.3859
rradius 41.1676
rwrist -8.20896
rhand -10.3604 -51.5758
rfingers 7.12502
rthumb 15.6366 -80.9638
lclavicle -1.22253e-014 9.54166e-015
lhumerus -34.2407 4.10037 77.5803
lradius 28.9491
lwrist -3.29802
lhand -22.3397 -13.3694
lfingers 7.12502
lthumb 4.08079 16.5713
rfemur -27.7162 0.771854 20.9033
rtibia 8.42919
rfoot -21.805 1.35473
rtoes -31.9394
lfemur -28.9614 -11.0439 -21.7961
ltibia 12.0787
lfoot -8.43602 1.64623
ltoes -42.9191
627
root 12.3816 18.0933 17.2533 -152.146 3.94732 176.275
lowerback -25.833 -1.66846 -4.29095
upperback -0.0484684 -0.654647 0.3732
thorax 14.5668 -0.501841 2.69242
lowerneck 0.0442911 -2.46421 -0.27234
upperneck 25.0403 -0.611733 -1.16408
head 7.68175 0.50432 -0.253344
rclavicle 1.25234e-014 5.96354e-015
rhumerus -40.1818 -11.7176 -80.5358
rradius 41.3246
rwrist -8.33158
rhand -9.87373 -51.0872
rfingers 7.12502
rthumb 16.1052 -80.4379
lclavicle 1.25234e-014 5.96354e-015
lhumerus -34.1226 4.26346 77.4733
lradius 28.865
lwrist -3.27062
lhand -22.2859 -13.6472
lfingers 7.12502
lthumb 4.13269 16.2924
rfemur -27.692 0.781225 20.8875
rtibia 8.45317
rfoot -22.2514 1.3623
rtoes -31.7136
lfemur -28.9339 -11.0729 -21.8103
ltibia 12.0854
lfoot -8.52189 1.69268
ltoes -43.1109
628
root 12.3771 18.0925 17.245 -152.17 3.82406 176.28
lowerback -26.1344 -1.66295 -4.20147
upperback 0.116141 -0.662028 0.337475
thorax 14.9321 -0.51164 2.59501
lowerneck 0.0554725 -2.42004 -0.447836
upperneck 24.615 -0.690368 -0.883585
head 7.53945 0.44581 -0.140156
rclavicle 2.28602e-015 -1.15295e-014
rhumerus -39.8323 -11.592 -80.7257
rradius 41.4096
rwrist -8.42733
rhand -9.61887 -50.6091
rfingers 7.12502
rthumb 16.3506 -79.9398
lclavicle 2.28602e-015 -1.15295e-014
lhumerus -33.7509 4.44868 77.3493
lradius 28.7496
lwrist -3.27439
lhand -22.3429 -13.8382
lfingers 7.12502
lthumb 4.07766 16.1025
rfemur -27.6177 0.713356 20.89
rtibia 8.45072
rfoot -22.597 1.24636
rtoes -31.768
lfemur -28.9208 -11.1867 -21.7977
ltibia 12.1375
lfoot -8.61689 1.71769
ltoes -43.3343
629
root 12.3724 18.0935 17.238 -152.191 3.64066 176.248
lowerback -26.1395 -1.69049 -4.17559
upperback 0.0889828 -0.706515 0.358922
thorax 14.9057 -0.528219 2.58833
lowerneck -0.0243415 -2.51454 -0.733433
upperneck 24.618 -0.850165 -0.708454
head 7.5582 0.354916 -0.0444534
rclavicle -8.15017e-015 -3.57812e-015
rhumerus -39.7674 -11.545 -80.7511
rradius 41.4327
rwrist -8.45879
rhand -10.04 -51.0374
rfingers 7.12502
rthumb 15.9451 -80.4011
lclavicle -8.15017e-015 -3.57812e-015
lhumerus -33.7873 4.64653 77.2975
lradius 28.7902
lwrist -3.33543
lhand -22.3068 -13.7914
lfingers 7.12502
lthumb 4.11255 16.1486
rfemur -27.5522 0.635737 20.8457
rtibia 8.46542
rfoot -22.3343 1.10936
rtoes -32.5523
lfemur -28.9207 -11.347 -21.7923
ltibia 12.1696
lfoot -8.57019 1.66982
ltoes -42.6983
630
root 12.3678 18.0947 17.2319 -152.218 3.53469 176.237
lowerback -25.8962 -1.69966 -4.21611
upperback -0.0961259 -0.710905 0.390264
thorax 14.5489 -0.51788 2.64852
lowerneck 0.144337 -2.24179 -0.5837
upperneck 24.5828 -0.407502 -0.904622
head 7.51529 0.575149 -0.105024
rclavicle -2.08724e-015 3.97569e-016
rhumerus -39.9726 -11.5106 -80.6471
rradius 41.403
rwrist -8.33072
rhand -10.1755 -51.1452
rfingers 7.12502
rthumb 15.8146 -80.5192
lclavicle -2.08724e-015 3.97569e-016
lhumerus -34.1679 4.66642 77.2766
lradius 28.974
lwrist -3.26801
lhand -22.2529 -13.681
lfingers 7.12502
lthumb 4.16457 16.258
rfemur -27.5264 0.583231 20.812
rtibia 8.54526
rfoot -22.1519 1.12578
rtoes -33.1278
lfemur -28.8653 -11.4127 -21.8124
ltibia 12.1478
lfoot -8.50427 1.65127
ltoes -42.3855
631
root 12.3636 18.0954 17.2251 -152.269 3.45188 176.237
lowerback -26.0003 -1.69242 -4.44715
upperback -0.0515672 -0.642838 0.488209
thorax 14.6605 -0.514076 2.92127
lowerneck 0.00640708 -2.39016 -0.592162
upperneck 24.6988 -0.619213 -0.83607
head 7.57819 0.481494 -0.0938304
rclavicle -9.54166e-015 7.95139e-016
rhumerus -39.7897 -11.5811 -80.4414
rradius 41.2338
rwrist -8.31348
rhand -10.2271 -50.9641
rfingers 7.12502
rthumb 15.765 -80.3421
lclavicle -9.54166e-015 7.95139e-016
lhumerus -34.0866 4.46107 77.5094
lradius 29.0422
lwrist -3.07681
lhand -22.2476 -13.6988
lfingers 7.12502
lthumb 4.16968 16.2402
rfemur -27.4737 0.621604 20.7723
rtibia 8.61135
rfoot -22.2015 1.11424
rtoes -32.8514
lfemur -28.789 -11.4732 -21.8267
ltibia 12.1659
lfoot -8.46147 1.62628
ltoes -42.0838
632
root 12.3593 18.0949 17.2213 -152.228 3.30833 176.22
lowerback -25.8741 -1.63655 -4.47558
upperback -0.217117 -0.546008 0.444284
thorax 14.3836 -0.453774 2.92471
lowerneck -0.0974175 -2.49495 -0.483267
upperneck 25.0524 -0.712824 -0.797365
head 7.71426 0.472175 -0.102123
rclavicle 9.93923e-017 -3.97569e-015
rhumerus -39.9781 -11.9004 -80.327
rradius 41.1153
rwrist -8.1501
rhand -10.2158 -50.6985
rfingers 7.12502
rthumb 15.7758 -80.0757
lclavicle 9.93923e-017 -3.97569e-015
lhumerus -34.2081 4.00799 77.5733
lradius 29.0627
lwrist -2.97418
lhand -22.3257 -13.8996
lfingers 7.12502
lthumb 4.09429 16.0408
rfemur -27.5343 0.720161 20.7109
rtibia 8.72151
rfoot -22.2076 0.904179
rtoes -32.3976
lfemur -28.871 -11.507 -21.8361
ltibia 12.2532
lfoot -8.44463 1.43506
ltoes -41.4957
633
root 12.3535 18.0936 17.2184 -152.152 3.19643 176.226
lowerback -25.9557 -1.59975 -4.46001
upperback -0.254895 -0.489315 0.429493
thorax 14.379 -0.42273 2.9208
lowerneck -0.208363 -2.54949 -0.352364
upperneck 25.1982 -0.732107 -0.98913
head 7.78075 0.466157 -0.188139
rclavicle -2.18663e-015 -2.42517e-014
rhumerus -39.929 -11.9539 -80.3436
rradius 41.1542
rwrist -8.21227
rhand -10.2635 -51.1859
rfingers 7.12502
rthumb 15.7299 -80.5666
lclavicle -2.18663e-015 -2.42517e-014
lhumerus -34.0943 3.94338 77.6088
lradius 29.0127
lwrist -3.10475
lhand -22.2902 -14.0049
lfingers 7.12502
lthumb 4.12853 15.9348
rfemur -27.7131 0.759344 20.6997
rtibia 8.9776
rfoot -22.5954 0.776151
rtoes -31.5136
lfemur -28.9895 -11.5171 -21.8308
ltibia 12.3494
lfoot -8.53805 1.27637
ltoes -41.9311
634
root 12.3472 18.0922 17.2097 -152.158 3.08578 176.281
lowerback -26.1826 -1.56892 -4.39242
upperback -0.147054 -0.459375 0.410711
thorax 14.631 -0.414199 2.87152
lowerneck -0.327219 -2.53317 -0.243785
upperneck 25.1443 -0.721801 -1.06987
head 7.78203 0.466258 -0.234066
rclavicle 0 9.14409e-015
rhumerus -39.7312 -11.7818 -80.5203
rradius 41.2889
rwrist -8.47592
rhand -10.1915 -51.9121
rfingers 7.12502
rthumb 15.7992 -81.2874
lclavicle 0 9.14409e-015
lhumerus -33.888 3.84296 77.6359
lradius 29.1001
lwrist -3.02142
lhand -22.3151 -13.8384
lfingers 7.12502
lthumb 4.10447 16.1018
rfemur -27.7492 0.884871 20.7177
rtibia 9.16713
rfoot -22.9999 0.585597
rtoes -30.5979
lfemur -28.9506 -11.5474 -21.777
ltibia 12.3511
lfoot -8.58452 1.21528
ltoes -42.6214
635
root 12.341 18.091 17.1974 -152.229 2.94706 176.381
lowerback -26.3528 -1.53794 -4.24308
upperback -0.0480524 -0.458406 0.391807
thorax 14.8427 -0.411344 2.76356
lowerneck -0.410581 -2.4306 -0.204336
upperneck 25.1181 -0.597284 -1.04145
head 7.78834 0.527528 -0.22382
rclavicle -9.24349e-015 -5.96354e-015
rhumerus -39.5164 -11.7383 -80.6325
rradius 41.1673
rwrist -8.41274
rhand -10.094 -52.2301
rfingers 7.12502
rthumb 15.8931 -81.5979
lclavicle -9.24349e-015 -5.96354e-015
lhumerus -33.7604 3.82302 77.5889
lradius 29.1933
lwrist -3.05276
lhand -22.6714 -13.6389
lfingers 7.12502
lthumb 3.76042 16.3077
rfemur -27.5719 1.04345 20.7842
rtibia 9.10661
rfoot -22.6459 0.320534
rtoes -30.9068
lfemur -28.7834 -11.4971 -21.6993
ltibia 12.2562
lfoot -8.55076 1.08262
ltoes -42.2444
636
root 12.3359 18.0899 17.1885 -152.25 2.81032 176.478
lowerback -26.4109 -1.53909 -4.12467
upperback -0.0530901 -0.496877 0.422639
thorax 14.871 -0.421066 2.71657
lowerneck -0.384469 -2.32812 -0.313727
upperneck 25.0886 -0.459533 -0.965732
head 7.77585 0.590359 -0.170808
rclavicle -2.68359e-015 1.74931e-014
rhumerus -39.3889 -11.624 -80.648
rradius 40.9663
rwrist -8.37988
rhand -10.3217 -52.3084
rfingers 7.12502
rthumb 15.6739 -81.6935
lclavicle -2.68359e-015 1.74931e-014
lhumerus -33.6946 4.12967 77.4954
lradius 29.0756
lwrist -3.3977
lhand -22.9421 -13.6573
lfingers 7.12502
lthumb 3.49902 16.2937
rfemur -27.4614 1.13872 20.8676
rtibia 9.03602
rfoot -22.2396 0.304403
rtoes -30.8361
lfemur -28.7192 -11.3966 -21.6265
ltibia 12.254
lfoot -8.55601 0.884801
ltoes -41.2615
